<?xml version="1.0" encoding="UTF-8"?><svg xmlns="http://www.w3.org/2000/svg" viewBox="0 0 512 512"><defs><style>.cls-1{fill:#f9f5f0;}.cls-2{fill:#ff82b5;}.cls-3{fill:#ffe454;}.cls-4{fill:#81b7ff;}.cls-5{fill:#00b886;}.cls-6{fill:#9e00ff;}.cls-7{fill:#ff344e;}.cls-8{fill:none;stroke:#231815;stroke-width:2.83px;}</style></defs><g id="_レイヤー_1"><rect class="cls-1" width="512" height="512"/></g><g id="outlinn"><path class="cls-2" d="M46.68,29.18c1.64,0,2.5,1.81,2.59,5.43l3.47,172.6h21.54c3.41,0,5.12,3.76,5.12,11.28v61.85c0,7.52-1.71,11.28-5.12,11.28h-41.25c-3.33,0-4.99-3.57-4.99-10.73v-.83l3.85-245.46c.04-3.62.91-5.43,2.59-5.43h12.19Z"/><path class="cls-7" d="M168.2,221.29c0,13.84-1.71,27.17-5.12,39.98l-2.72,10.17c-3.28,12.35-8.23,18.53-14.84,18.53h-35.06c-6.06,0-11.52-5.34-16.36-16.02l-.63-1.39c-4.34-9.56-6.55-22.2-6.63-37.89l-.76-117.86v-.7c0-13.37,2.5-24.8,7.52-34.27l.44-.84c4.72-8.92,10.53-13.37,17.43-13.37h29.62c6.61,0,12.19,5.11,16.74,15.32l3.41,7.66c4.63,10.4,6.95,22.71,6.95,36.92v93.76ZM140.66,223.93v-72.3c0-7.15-1.58-11.05-4.74-11.7l-12.95-2.51c-.25-.09-.51-.14-.76-.14-2.91,0-4.44,3.58-4.61,10.73l-1.77,74.39v1.53c0,8.36,1.79,12.54,5.37,12.54.29,0,.59-.05.88-.14l14.27-2.51c2.86-.46,4.29-3.76,4.29-9.89Z"/><path class="cls-6" d="M214.75,233.41c3.41,0,5.12-3.76,5.12-11.28v-7.1c0-7.52-1.71-11.28-5.12-11.28h-9.73c-6.49,0-11.98-4.92-16.49-14.77l-4.93-10.73c-4.04-8.82-6.06-19.97-6.06-33.43v-27.72c0-14.77,1.9-26.17,5.72-34.2,3.81-8.03,9.06-12.05,15.76-12.05h43.9c3.41,0,5.12,3.76,5.12,11.28v35.38c0,7.52-1.71,11.28-5.12,11.28h-28.68c-3.41,0-5.12,3.76-5.12,11.28v4.18c0,7.52,1.71,11.28,5.12,11.28h8.15c6.06,0,10.95,3.16,14.65,9.47l3.03,5.15c3.92,6.69,5.87,17.09,5.87,31.21v45.14c0,13.93-2.38,24.84-7.14,32.74-4.76,7.89-10.34,11.84-16.74,11.84h-41.94c-1.73,0-2.59-1.9-2.59-5.71v-46.25c0-3.81.86-5.71,2.59-5.71h34.61Z"/><path class="cls-3" d="M295.92,282.03c-.17,6.41-1.68,9.61-4.55,9.61h-12.38c-2.99,0-4.51-3.3-4.55-9.89l-1.07-125.94c-.04-3.81-.91-5.71-2.59-5.71h-11.31c-3.41,0-5.12-3.76-5.12-11.28v-57.53c0-7.34,1.66-11.19,4.99-11.56l59.44-5.99h.25c1.64,0,2.46,1.9,2.46,5.71v75.51c0,3.81-.84,5.71-2.53,5.71h-.06l-17.37-.28h-.06c-1.6,0-2.44,1.81-2.53,5.43l-3.03,126.21Z"/><path class="cls-4" d="M369.82,83.23v-.28c0-7.52,1.71-11.28,5.12-11.28h23.81c3.37,0,5.05,3.53,5.05,10.59v.98l-4.17,196.84c-.17,7.34-1.89,11-5.18,11h-18.38c-3.37,0-5.08-3.76-5.12-11.28l-1.14-196.56Z"/><path class="cls-5" d="M437.91,203.46l-3.79,78.85c-.29,6.22-1.85,9.33-4.67,9.33h-12.51c-2.99,0-4.49-3.25-4.49-9.75v-.14l1.01-206.46c.04-6.59,1.54-9.89,4.48-9.89h14.4c.84,0,1.54.74,2.08,2.23l23.69,65.06,9.92-98.21c.59-5.66,2.19-8.5,4.8-8.5h11.05c2.91,0,4.36,2.83,4.36,8.5,0,.56-.02,1.11-.06,1.67l-10.3,243.09c-.25,6.13-1.79,9.19-4.61,9.19h-11.56c-.97,0-1.71-.93-2.21-2.79l-21.6-82.19Z"/><path class="cls-8" d="M46.68,29.18c1.64,0,2.5,1.81,2.59,5.43l3.47,172.6h21.54c3.41,0,5.12,3.76,5.12,11.28v61.85c0,7.52-1.71,11.28-5.12,11.28h-41.25c-3.33,0-4.99-3.57-4.99-10.73v-.83l3.85-245.46c.04-3.62.91-5.43,2.59-5.43h12.19Z"/><path class="cls-8" d="M168.2,221.29c0,13.84-1.71,27.17-5.12,39.98l-2.72,10.17c-3.28,12.35-8.23,18.53-14.84,18.53h-35.06c-6.06,0-11.52-5.34-16.36-16.02l-.63-1.39c-4.34-9.56-6.55-22.2-6.63-37.89l-.76-117.86v-.7c0-13.37,2.5-24.8,7.52-34.27l.44-.84c4.72-8.92,10.53-13.37,17.43-13.37h29.62c6.61,0,12.19,5.11,16.74,15.32l3.41,7.66c4.63,10.4,6.95,22.71,6.95,36.92v93.76ZM140.66,223.93v-72.3c0-7.15-1.58-11.05-4.74-11.7l-12.95-2.51c-.25-.09-.51-.14-.76-.14-2.91,0-4.44,3.58-4.61,10.73l-1.77,74.39v1.53c0,8.36,1.79,12.54,5.37,12.54.29,0,.59-.05.88-.14l14.27-2.51c2.86-.46,4.29-3.76,4.29-9.89Z"/><path class="cls-8" d="M214.75,233.41c3.41,0,5.12-3.76,5.12-11.28v-7.1c0-7.52-1.71-11.28-5.12-11.28h-9.73c-6.49,0-11.98-4.92-16.49-14.77l-4.93-10.73c-4.04-8.82-6.06-19.97-6.06-33.43v-27.72c0-14.77,1.9-26.17,5.72-34.2,3.81-8.03,9.06-12.05,15.76-12.05h43.9c3.41,0,5.12,3.76,5.12,11.28v35.38c0,7.52-1.71,11.28-5.12,11.28h-28.68c-3.41,0-5.12,3.76-5.12,11.28v4.18c0,7.52,1.71,11.28,5.12,11.28h8.15c6.06,0,10.95,3.16,14.65,9.47l3.03,5.15c3.92,6.69,5.87,17.09,5.87,31.21v45.14c0,13.93-2.38,24.84-7.14,32.74-4.76,7.89-10.34,11.84-16.74,11.84h-41.94c-1.73,0-2.59-1.9-2.59-5.71v-46.25c0-3.81.86-5.71,2.59-5.71h34.61Z"/><path class="cls-8" d="M295.92,282.03c-.17,6.41-1.68,9.61-4.55,9.61h-12.38c-2.99,0-4.51-3.3-4.55-9.89l-1.07-125.94c-.04-3.81-.91-5.71-2.59-5.71h-11.31c-3.41,0-5.12-3.76-5.12-11.28v-57.53c0-7.34,1.66-11.19,4.99-11.56l59.44-5.99h.25c1.64,0,2.46,1.9,2.46,5.71v75.51c0,3.81-.84,5.71-2.53,5.71h-.06l-17.37-.28h-.06c-1.6,0-2.44,1.81-2.53,5.43l-3.03,126.21Z"/><path class="cls-8" d="M369.82,83.23v-.28c0-7.52,1.71-11.28,5.12-11.28h23.81c3.37,0,5.05,3.53,5.05,10.59v.98l-4.17,196.84c-.17,7.34-1.89,11-5.18,11h-18.38c-3.37,0-5.08-3.76-5.12-11.28l-1.14-196.56Z"/><path class="cls-8" d="M437.91,203.46l-3.79,78.85c-.29,6.22-1.85,9.33-4.67,9.33h-12.51c-2.99,0-4.49-3.25-4.49-9.75v-.14l1.01-206.46c.04-6.59,1.54-9.89,4.48-9.89h14.4c.84,0,1.54.74,2.08,2.23l23.69,65.06,9.92-98.21c.59-5.66,2.19-8.5,4.8-8.5h11.05c2.91,0,4.36,2.83,4.36,8.5,0,.56-.02,1.11-.06,1.67l-10.3,243.09c-.25,6.13-1.79,9.19-4.61,9.19h-11.56c-.97,0-1.71-.93-2.21-2.79l-21.6-82.19Z"/><path class="cls-5" d="M51.5,457.27c-.09,3.54-.93,5.31-2.51,5.31h-6.83c-1.65,0-2.49-1.82-2.51-5.46l-.59-69.51c-.02-2.1-.5-3.15-1.43-3.15h-6.24c-1.88,0-2.82-2.08-2.82-6.23v-31.76c0-4.05.92-6.18,2.75-6.38l32.81-3.31h.14c.91,0,1.36,1.05,1.36,3.15v41.68c0,2.1-.47,3.15-1.39,3.15h-.04l-9.59-.15h-.04c-.88,0-1.35,1-1.39,3l-1.67,69.67Z"/><path class="cls-4" d="M109.93,459.42c.09.41.14.82.14,1.23,0,.36-.05.74-.14,1.15-.19.62-.5.92-.94.92h-11.92c-.37,0-.65-.31-.84-.92l-13.28-43.14-1.39,38.29c-.12,3.03-.86,4.54-2.23,4.54h-7.6c-1.42,0-2.13-1.56-2.13-4.69v-112.26c0-4.1.82-6.23,2.48-6.38l22.14-2.08h.7c3.51,0,6.46,2.41,8.86,7.23,2.49,4.97,3.73,11.28,3.73,18.92v22.3c0,8.1-1.28,14.87-3.83,20.3l-4.29,9.07,10.56,45.52ZM95.01,379.22c0-4-.93-6.46-2.79-7.38l-6.9-3.46c-.14-.05-.27-.08-.38-.08-.56,0-.86.77-.91,2.31l-.66,25.99v.31c0,1.59.34,2.38,1.01,2.38.16,0,.35-.15.56-.46l7.6-10.76c1.65-2.36,2.48-5.31,2.48-8.84Z"/><path class="cls-3" d="M161.25,477.87c.05.31.07.62.07.92,0,2-.48,3-1.43,3h-11.33c-1.53,0-2.58-1.46-3.14-4.38l-5.61-29.83-12.41-4.23-2.89,15.38c-.49,2.56-1.28,3.84-2.37,3.84h-10.18c-.93,0-1.39-1-1.39-3,0-.41.02-.82.07-1.23l19.77-114.19c.49-2.87,1.48-4.46,2.96-4.77l7.84-1.69c.21-.05.41-.08.59-.08,1.74,0,2.83,1.85,3.28,5.54l16.18,134.72ZM138.17,422.12l-2.65-24.91c-.19-1.69-.71-2.54-1.57-2.54-.58,0-.95.64-1.12,1.92l-2.93,22.84c-.09.67-.14,1.26-.14,1.77,0,1.54.42,2.46,1.26,2.77l5.65,2.08c.07.05.14.08.21.08.91,0,1.36-1,1.36-3,0-.31-.02-.64-.07-1Z"/><path class="cls-6" d="M176.34,413.9l-2.09,43.52c-.16,3.44-1.02,5.15-2.58,5.15h-6.9c-1.65,0-2.48-1.79-2.48-5.38v-.08l.56-113.96c.02-3.64.85-5.46,2.48-5.46h7.95c.46,0,.85.41,1.15,1.23l13.07,35.91,5.47-54.21c.33-3.13,1.21-4.69,2.65-4.69h6.1c1.6,0,2.41,1.56,2.41,4.69,0,.31-.01.62-.03.92l-5.68,134.18c-.14,3.38-.99,5.08-2.54,5.08h-6.38c-.54,0-.94-.51-1.22-1.54l-11.92-45.37Z"/><path class="cls-7" d="M227.45,430.43c1.88,0,2.82-2.08,2.82-6.23v-3.92c0-4.15-.94-6.23-2.82-6.23h-5.37c-3.58,0-6.61-2.72-9.1-8.15l-2.72-5.92c-2.23-4.87-3.35-11.02-3.35-18.45v-15.3c0-8.15,1.05-14.44,3.16-18.88,2.1-4.43,5-6.65,8.7-6.65h24.23c1.88,0,2.82,2.08,2.82,6.23v19.53c0,4.15-.94,6.23-2.82,6.23h-15.83c-1.88,0-2.82,2.08-2.82,6.23v2.31c0,4.15.94,6.23,2.82,6.23h4.5c3.35,0,6.04,1.74,8.09,5.23l1.67,2.85c2.16,3.69,3.24,9.43,3.24,17.22v24.91c0,7.69-1.31,13.71-3.94,18.07-2.63,4.36-5.71,6.54-9.24,6.54h-23.15c-.95,0-1.43-1.05-1.43-3.15v-25.53c0-2.1.48-3.15,1.43-3.15h19.11Z"/><path class="cls-2" d="M260.79,317.7c.91,0,1.38,1,1.43,3l1.92,95.27h11.89c1.88,0,2.82,2.08,2.82,6.23v34.14c0,4.15-.94,6.23-2.82,6.23h-22.77c-1.84,0-2.75-1.97-2.75-5.92v-.46l2.13-135.49c.02-2,.5-3,1.43-3h6.73Z"/><path class="cls-5" d="M332.36,477.87c.05.31.07.62.07.92,0,2-.48,3-1.43,3h-11.33c-1.53,0-2.58-1.46-3.14-4.38l-5.61-29.83-12.41-4.23-2.89,15.38c-.49,2.56-1.28,3.84-2.37,3.84h-10.18c-.93,0-1.39-1-1.39-3,0-.41.02-.82.07-1.23l19.77-114.19c.49-2.87,1.48-4.46,2.96-4.77l7.84-1.69c.21-.05.41-.08.59-.08,1.74,0,2.83,1.85,3.28,5.54l16.18,134.72ZM309.28,422.12l-2.65-24.91c-.19-1.69-.71-2.54-1.57-2.54-.58,0-.95.64-1.12,1.92l-2.93,22.84c-.09.67-.14,1.26-.14,1.77,0,1.54.42,2.46,1.25,2.77l5.65,2.08c.07.05.14.08.21.08.91,0,1.36-1,1.36-3,0-.31-.02-.64-.07-1Z"/><path class="cls-4" d="M351.36,457.27c-.09,3.54-.93,5.31-2.51,5.31h-6.83c-1.65,0-2.49-1.82-2.51-5.46l-.59-69.51c-.02-2.1-.5-3.15-1.43-3.15h-6.24c-1.88,0-2.82-2.08-2.82-6.23v-31.76c0-4.05.92-6.18,2.75-6.38l32.81-3.31h.14c.91,0,1.36,1.05,1.36,3.15v41.68c0,2.1-.47,3.15-1.39,3.15h-.04l-9.59-.15h-.03c-.88,0-1.35,1-1.39,3l-1.67,69.67Z"/><path class="cls-3" d="M369.46,347.54v-.15c0-4.15.94-6.23,2.82-6.23h13.14c1.86,0,2.79,1.95,2.79,5.84v.54l-2.3,108.65c-.09,4.05-1.05,6.07-2.86,6.07h-10.15c-1.86,0-2.8-2.08-2.82-6.23l-.63-108.5Z"/><path class="cls-6" d="M438.38,423.74c0,7.64-.94,14.99-2.82,22.07l-1.5,5.61c-1.81,6.82-4.54,10.23-8.19,10.23h-19.35c-3.35,0-6.36-2.95-9.03-8.84l-.35-.77c-2.39-5.28-3.61-12.25-3.66-20.92l-.42-65.05v-.38c0-7.38,1.38-13.69,4.15-18.92l.24-.46c2.6-4.92,5.81-7.38,9.62-7.38h16.35c3.65,0,6.73,2.82,9.24,8.46l1.88,4.23c2.56,5.74,3.83,12.53,3.83,20.38v51.75ZM423.18,425.2v-39.91c0-3.95-.87-6.1-2.62-6.46l-7.15-1.38c-.14-.05-.28-.08-.42-.08-1.6,0-2.45,1.97-2.54,5.92l-.98,41.06v.85c0,4.61.99,6.92,2.96,6.92.16,0,.33-.02.49-.08l7.88-1.38c1.58-.26,2.37-2.08,2.37-5.46Z"/><path class="cls-7" d="M457.59,413.9l-2.09,43.52c-.16,3.44-1.02,5.15-2.58,5.15h-6.9c-1.65,0-2.48-1.79-2.48-5.38v-.08l.56-113.96c.02-3.64.85-5.46,2.48-5.46h7.95c.46,0,.85.41,1.15,1.23l13.07,35.91,5.47-54.21c.33-3.13,1.21-4.69,2.65-4.69h6.1c1.6,0,2.41,1.56,2.41,4.69,0,.31-.01.62-.04.92l-5.68,134.18c-.14,3.38-.99,5.08-2.54,5.08h-6.38c-.53,0-.94-.51-1.22-1.54l-11.92-45.37Z"/><path class="cls-8" d="M51.5,457.27c-.09,3.54-.93,5.31-2.51,5.31h-6.83c-1.65,0-2.49-1.82-2.51-5.46l-.59-69.51c-.02-2.1-.5-3.15-1.43-3.15h-6.24c-1.88,0-2.82-2.08-2.82-6.23v-31.76c0-4.05.92-6.18,2.75-6.38l32.81-3.31h.14c.91,0,1.36,1.05,1.36,3.15v41.68c0,2.1-.47,3.15-1.39,3.15h-.04l-9.59-.15h-.04c-.88,0-1.35,1-1.39,3l-1.67,69.67Z"/><path class="cls-8" d="M109.93,459.42c.09.41.14.82.14,1.23,0,.36-.05.74-.14,1.15-.19.62-.5.92-.94.92h-11.92c-.37,0-.65-.31-.84-.92l-13.28-43.14-1.39,38.29c-.12,3.03-.86,4.54-2.23,4.54h-7.6c-1.42,0-2.13-1.56-2.13-4.69v-112.26c0-4.1.82-6.23,2.48-6.38l22.14-2.08h.7c3.51,0,6.46,2.41,8.86,7.23,2.49,4.97,3.73,11.28,3.73,18.92v22.3c0,8.1-1.28,14.87-3.83,20.3l-4.29,9.07,10.56,45.52ZM95.01,379.22c0-4-.93-6.46-2.79-7.38l-6.9-3.46c-.14-.05-.27-.08-.38-.08-.56,0-.86.77-.91,2.31l-.66,25.99v.31c0,1.59.34,2.38,1.01,2.38.16,0,.35-.15.56-.46l7.6-10.76c1.65-2.36,2.48-5.31,2.48-8.84Z"/><path class="cls-8" d="M161.25,477.87c.05.31.07.62.07.92,0,2-.48,3-1.43,3h-11.33c-1.53,0-2.58-1.46-3.14-4.38l-5.61-29.83-12.41-4.23-2.89,15.38c-.49,2.56-1.28,3.84-2.37,3.84h-10.18c-.93,0-1.39-1-1.39-3,0-.41.02-.82.07-1.23l19.77-114.19c.49-2.87,1.48-4.46,2.96-4.77l7.84-1.69c.21-.05.41-.08.59-.08,1.74,0,2.83,1.85,3.28,5.54l16.18,134.72ZM138.17,422.12l-2.65-24.91c-.19-1.69-.71-2.54-1.57-2.54-.58,0-.95.64-1.12,1.92l-2.93,22.84c-.09.67-.14,1.26-.14,1.77,0,1.54.42,2.46,1.26,2.77l5.65,2.08c.07.05.14.08.21.08.91,0,1.36-1,1.36-3,0-.31-.02-.64-.07-1Z"/><path class="cls-8" d="M176.34,413.9l-2.09,43.52c-.16,3.44-1.02,5.15-2.58,5.15h-6.9c-1.65,0-2.48-1.79-2.48-5.38v-.08l.56-113.96c.02-3.64.85-5.46,2.48-5.46h7.95c.46,0,.85.41,1.15,1.23l13.07,35.91,5.47-54.21c.33-3.13,1.21-4.69,2.65-4.69h6.1c1.6,0,2.41,1.56,2.41,4.69,0,.31-.01.62-.03.92l-5.68,134.18c-.14,3.38-.99,5.08-2.54,5.08h-6.38c-.54,0-.94-.51-1.22-1.54l-11.92-45.37Z"/><path class="cls-8" d="M227.45,430.43c1.88,0,2.82-2.08,2.82-6.23v-3.92c0-4.15-.94-6.23-2.82-6.23h-5.37c-3.58,0-6.61-2.72-9.1-8.15l-2.72-5.92c-2.23-4.87-3.35-11.02-3.35-18.45v-15.3c0-8.15,1.05-14.44,3.16-18.88,2.1-4.43,5-6.65,8.7-6.65h24.23c1.88,0,2.82,2.08,2.82,6.23v19.53c0,4.15-.94,6.23-2.82,6.23h-15.83c-1.88,0-2.82,2.08-2.82,6.23v2.31c0,4.15.94,6.23,2.82,6.23h4.5c3.35,0,6.04,1.74,8.09,5.23l1.67,2.85c2.16,3.69,3.24,9.43,3.24,17.22v24.91c0,7.69-1.31,13.71-3.94,18.07-2.63,4.36-5.71,6.54-9.24,6.54h-23.15c-.95,0-1.43-1.05-1.43-3.15v-25.53c0-2.1.48-3.15,1.43-3.15h19.11Z"/><path class="cls-8" d="M260.79,317.7c.91,0,1.38,1,1.43,3l1.92,95.27h11.89c1.88,0,2.82,2.08,2.82,6.23v34.14c0,4.15-.94,6.23-2.82,6.23h-22.77c-1.84,0-2.75-1.97-2.75-5.92v-.46l2.13-135.49c.02-2,.5-3,1.43-3h6.73Z"/><path class="cls-8" d="M332.36,477.87c.05.31.07.62.07.92,0,2-.48,3-1.43,3h-11.33c-1.53,0-2.58-1.46-3.14-4.38l-5.61-29.83-12.41-4.23-2.89,15.38c-.49,2.56-1.28,3.84-2.37,3.84h-10.18c-.93,0-1.39-1-1.39-3,0-.41.02-.82.07-1.23l19.77-114.19c.49-2.87,1.48-4.46,2.96-4.77l7.84-1.69c.21-.05.41-.08.59-.08,1.74,0,2.83,1.85,3.28,5.54l16.18,134.72ZM309.28,422.12l-2.65-24.91c-.19-1.69-.71-2.54-1.57-2.54-.58,0-.95.64-1.12,1.92l-2.93,22.84c-.09.67-.14,1.26-.14,1.77,0,1.54.42,2.46,1.25,2.77l5.65,2.08c.07.05.14.08.21.08.91,0,1.36-1,1.36-3,0-.31-.02-.64-.07-1Z"/><path class="cls-8" d="M351.36,457.27c-.09,3.54-.93,5.31-2.51,5.31h-6.83c-1.65,0-2.49-1.82-2.51-5.46l-.59-69.51c-.02-2.1-.5-3.15-1.43-3.15h-6.24c-1.88,0-2.82-2.08-2.82-6.23v-31.76c0-4.05.92-6.18,2.75-6.38l32.81-3.31h.14c.91,0,1.36,1.05,1.36,3.15v41.68c0,2.1-.47,3.15-1.39,3.15h-.04l-9.59-.15h-.03c-.88,0-1.35,1-1.39,3l-1.67,69.67Z"/><path class="cls-8" d="M369.46,347.54v-.15c0-4.15.94-6.23,2.82-6.23h13.14c1.86,0,2.79,1.95,2.79,5.84v.54l-2.3,108.65c-.09,4.05-1.05,6.07-2.86,6.07h-10.15c-1.86,0-2.8-2.08-2.82-6.23l-.63-108.5Z"/><path class="cls-8" d="M438.38,423.74c0,7.64-.94,14.99-2.82,22.07l-1.5,5.61c-1.81,6.82-4.54,10.23-8.19,10.23h-19.35c-3.35,0-6.36-2.95-9.03-8.84l-.35-.77c-2.39-5.28-3.61-12.25-3.66-20.92l-.42-65.05v-.38c0-7.38,1.38-13.69,4.15-18.92l.24-.46c2.6-4.92,5.81-7.38,9.62-7.38h16.35c3.65,0,6.73,2.82,9.24,8.46l1.88,4.23c2.56,5.74,3.83,12.53,3.83,20.38v51.75ZM423.18,425.2v-39.91c0-3.95-.87-6.1-2.62-6.46l-7.15-1.38c-.14-.05-.28-.08-.42-.08-1.6,0-2.45,1.97-2.54,5.92l-.98,41.06v.85c0,4.61.99,6.92,2.96,6.92.16,0,.33-.02.49-.08l7.88-1.38c1.58-.26,2.37-2.08,2.37-5.46Z"/><path class="cls-8" d="M457.59,413.9l-2.09,43.52c-.16,3.44-1.02,5.15-2.58,5.15h-6.9c-1.65,0-2.48-1.79-2.48-5.38v-.08l.56-113.96c.02-3.64.85-5.46,2.48-5.46h7.95c.46,0,.85.41,1.15,1.23l13.07,35.91,5.47-54.21c.33-3.13,1.21-4.69,2.65-4.69h6.1c1.6,0,2.41,1.56,2.41,4.69,0,.31-.01.62-.04.92l-5.68,134.18c-.14,3.38-.99,5.08-2.54,5.08h-6.38c-.53,0-.94-.51-1.22-1.54l-11.92-45.37Z"/></g></svg>